<svg id="svgCanvas" viewBox="0 0 512 512" width="512" height="512" xmlns="http://www.w3.org/2000/svg"><rect data-bg="1" x="0" y="0" width="512" height="512" fill="#e9e9e9" style="pointer-events: none;"></rect><path fill="#e02020" data-rect="1" data-x="205.99999237060547" data-y="181" data-w="50" data-h="50" data-tl="30" data-tr="30" data-br="0" data-bl="30" d="M230.99999237060547,181 L230.99999237060547,181 A25,25 0 0 1 255.99999237060547,206 L255.99999237060547,231 L230.99999237060547,231 A25,25 0 0 1 205.99999237060547,206 L205.99999237060547,206 A25,25 0 0 1 230.99999237060547,181 Z"></path><path fill="#20c060" data-rect="1" data-x="206.0000228881836" data-y="281" data-w="50" data-h="50" data-tl="30" data-tr="0" data-br="30" data-bl="30" d="M231.0000228881836,281 L256.0000228881836,281 L256.0000228881836,306 A25,25 0 0 1 231.0000228881836,331 L231.0000228881836,331 A25,25 0 0 1 206.0000228881836,306 L206.0000228881836,306 A25,25 0 0 1 231.0000228881836,281 Z"></path><path fill="#e06020" data-rect="1" data-x="255.99999237060547" data-y="181" data-w="50" data-h="50" data-tl="0" data-tr="30" data-br="30" data-bl="0" d="M255.99999237060547,181 L280.99999237060547,181 A25,25 0 0 1 305.99999237060547,206 L305.99999237060547,206 A25,25 0 0 1 280.99999237060547,231 L255.99999237060547,231 L255.99999237060547,181 Z"></path><path fill="#8040e0" data-rect="1" data-x="205.99999237060547" data-y="231" data-w="50" data-h="50" data-tl="30" data-tr="0" data-br="0" data-bl="30" d="M230.99999237060547,231 L255.99999237060547,231 L255.99999237060547,281 L230.99999237060547,281 A25,25 0 0 1 205.99999237060547,256 L205.99999237060547,256 A25,25 0 0 1 230.99999237060547,231 Z"></path><path fill="#00a0e0" data-rect="1" data-x="256.00000762939453" data-y="231" data-w="50" data-h="50" data-tl="0" data-tr="30" data-br="30" data-bl="0" d="M256.00000762939453,231 L281.00000762939453,231 A25,25 0 0 1 306.00000762939453,256 L306.00000762939453,256 A25,25 0 0 1 281.00000762939453,281 L256.00000762939453,281 L256.00000762939453,231 Z"></path></svg>